Coordinates
version=1
nRows=19
nColumns=24
inDegrees=yes

Units are S.I. units (second, meters, Newtons, ...)
If the header above contains a line with 'inDegrees', this indicates whether rotational values are in degrees (yes) or radians (no).

endheader
time	pelvis_tilt	pelvis_list	pelvis_rotation	pelvis_tx	pelvis_ty	pelvis_tz	hip_flexion_r	hip_adduction_r	hip_rotation_r	knee_angle_r	ankle_angle_r	subtalar_angle_r	mtp_angle_r	hip_flexion_l	hip_adduction_l	hip_rotation_l	knee_angle_l	ankle_angle_l	subtalar_angle_l	mtp_angle_l	lumbar_extension	lumbar_bending	lumbar_rotation
      6.13000000	     -8.73513524	    -21.24823361	    -94.25075031	     -0.25116655	      0.97294004	     -0.87342923	    -33.48675257	     10.41372174	     -5.03140871	      1.29486401	      8.50074981	      9.19246236	      0.00000000	     10.02643297	    -13.68221498	    -13.39500167	    -26.35441505	      6.64159122	      3.37677331	      0.00000000	    -43.48223130	      7.31867165	     12.41816931
      6.14000000	     -8.30182067	    -22.33091989	    -94.25966089	     -0.25028797	      0.97225054	     -0.85777199	    -36.16453963	      9.72993052	     -5.14340675	      2.16599869	      8.74029838	      9.74038634	      0.00000000	      7.33271261	    -12.44872208	    -14.53253863	    -20.44373555	      6.97029838	      5.11977070	      0.00000000	    -44.41747732	      6.82375965	     12.17782583
      6.15000000	     -7.85875094	    -23.44312891	    -94.26594877	     -0.24926476	      0.97130431	     -0.84168179	    -38.84510120	      9.01907111	     -5.36852176	      2.93681030	      8.97696259	     10.39471413	      0.00000000	      4.47693280	    -11.10807701	    -15.56118237	    -14.44600385	      7.02301100	      6.48092304	      0.00000000	    -45.32397383	      6.33496044	     11.91737464
      6.16000000	     -7.57715679	    -24.45570230	    -94.36408657	     -0.24823549	      0.96996156	     -0.82543568	    -41.31687010	      8.41289802	     -5.54281832	      3.47678413	      9.21899099	     11.04809446	      0.00000000	      1.71017247	     -9.89295247	    -16.47274082	     -8.66680023	      6.84528424	      7.45196713	      0.00000000	    -46.12587741	      5.96595793	     11.76394980
      6.17000000	     -7.62461962	    -25.32771642	    -94.71820927	     -0.24732815	      0.96833092	     -0.80953825	    -43.40469798	      7.96018116	     -5.49079055	      3.57206480	      9.58728184	     11.65659444	      0.00000000	     -0.82083502	     -9.00545227	    -17.09057862	     -3.42718278	      6.47514517	      7.64658411	      0.00000000	    -46.87905185	      5.77351549	     11.91117112
      6.18000000	     -8.11038401	    -26.06334880	    -95.53971360	     -0.24686291	      0.96672467	     -0.79441272	    -45.05599577	      7.61251285	     -5.02874193	      3.16058322	      9.94495907	     12.18392463	      0.00000000	     -3.05946289	     -8.61946284	    -17.74650498	      0.97929797	      6.00755947	      7.39515711	      0.00000000	    -47.67184175	      5.69586532	     12.52856586
      6.19000000	     -9.21504671	    -26.72659043	    -97.05266039	     -0.24706968	      0.96552418	     -0.78063013	    -46.23427446	      7.36758526	     -3.90143017	      2.04552218	     10.36107343	     12.54257106	      0.00000000	     -5.02446313	     -8.92698249	    -18.57684509	      4.25749401	      5.59048364	      6.73386394	      0.00000000	    -48.70133980	      5.72565336	     13.80873559
      6.20000000	    -10.79675324	    -27.32145988	    -99.14664299	     -0.24787813	      0.96484556	     -0.76803454	    -47.00913449	      7.15645190	     -2.17199096	      0.31025801	     10.76981116	     12.63188273	      0.00000000	     -6.70877029	     -9.78680575	    -19.66062383	      6.24024368	      5.31628784	      5.92030573	      0.00000000	    -49.95323782	      5.74339533	     15.65035498
      6.21000000	     -9.36033230	    -27.35437010	    -97.44264739	     -0.24515609	      0.96179278	     -0.74852808	    -47.80090630	      6.60491930	     -4.12443084	     -0.14699348	     11.22644876	     13.53601699	      0.00000000	     -6.81861386	     -8.08223255	    -18.08902723	      7.26218928	      5.40255656	      5.06777205	      0.00000000	    -49.08653243	      5.52729890	     13.83234470
      6.22000000	     -7.45931335	    -27.16842548	    -95.35885616	     -0.24225460	      0.95860954	     -0.72832881	    -48.30406839	      5.90296442	     -6.53591297	     -0.79292851	     11.67908165	     14.61929184	      0.00000000	     -6.41899422	     -6.10338504	    -16.40185026	      7.10404548	      5.64681168	      4.65746794	      0.00000000	    -47.88453397	      5.03770022	     11.58822928
      6.23000000	     -7.86012722	    -27.47469549	    -96.37456296	     -0.24256799	      0.95795577	     -0.71398850	    -48.30772044	      5.21648811	     -5.92539217	     -3.07777115	     12.00801195	     14.94768949	      0.00000000	     -6.62895772	     -6.30458610	    -16.75938697	      5.69599862	      5.74112625	      4.48343423	      0.00000000	    -48.41648291	      4.58659377	     12.27183933
      6.24000000	     -7.78549896	    -27.69672781	    -96.93148001	     -0.24259024	      0.95716731	     -0.69858075	    -48.20588740	      4.38232381	     -5.62505409	     -5.37913688	     12.15811420	     15.12104203	      0.00000000	     -6.58338468	     -6.14033554	    -16.78137119	      3.71798119	      5.65423871	      4.59378023	      0.00000000	    -48.65179047	      3.94476711	     12.46959216
      6.25000000	     -7.37666979	    -27.78686252	    -97.07813341	     -0.24226389	      0.95617201	     -0.68228594	    -47.92513103	      3.49969759	     -5.79077641	     -7.73782373	     12.10277817	     15.47605062	      0.00000000	     -6.27585788	     -5.73676694	    -16.45411033	      1.45122815	      5.21406984	      4.75109791	      0.00000000	    -48.58599526	      3.24693304	     12.27434771
      6.26000000	     -6.72679814	    -27.86716079	    -97.01485770	     -0.24163991	      0.95518921	     -0.66526581	    -47.57507388	      2.48731745	     -6.26994061	    -10.18516726	     11.73983283	     15.94712740	      0.00000000	     -6.01353528	     -5.09678522	    -15.99338667	     -0.68649010	      4.14511094	      4.60973159	      0.00000000	    -48.38625007	      2.46062593	     11.82082076
      6.27000000	     -5.96187672	    -28.00293168	    -96.93488843	     -0.24082654	      0.95443597	     -0.64786862	    -47.15827381	      1.30170859	     -6.97673226	    -12.81141719	     11.02658022	     16.62715368	      0.00000000	     -5.97800692	     -4.30565230	    -15.71412031	     -2.46099973	      2.39901923	      4.21325033	      0.00000000	    -48.18586798	      1.58366985	     11.30770715
      6.28000000	     -5.08424665	    -28.24065884	    -96.89981291	     -0.23988092	      0.95408694	     -0.63036337	    -46.66386920	     -0.11745110	     -7.84222829	    -15.66976239	      9.84333355	     17.39467424	      0.00000000	     -6.24226155	     -3.36308190	    -15.73331991	     -3.84815564	      0.25517013	      3.68037836	      0.00000000	    -48.06589666	      0.57555486	     10.76872144
      6.29000000	     -4.07088024	    -28.54055947	    -96.89193863	     -0.23877043	      0.95416397	     -0.61298709	    -45.98384405	     -1.79986696	     -8.85050703	    -18.83144639	      8.11848899	     18.19475536	      0.00000000	     -6.68809307	     -2.25629932	    -15.82108652	     -5.02681326	     -1.80559833	      2.91195656	      0.00000000	    -48.01387124	     -0.56688211	     10.18441020
      6.30000000	     -2.88231947	    -28.86816460	    -96.80483390	     -0.23737908	      0.95460135	     -0.59595776	    -45.05383058	     -3.71423136	     -9.96416840	    -22.32227132	      5.77796070	     18.81191148	      0.00000000	     -7.13052636	     -0.95920407	    -15.63558263	     -6.28086955	     -3.37185441	      1.79325418	      0.00000000	    -48.02348049	     -1.80579355	      9.46322174
      6.31000000	     -1.59842892	    -28.99796234	    -96.66426812	     -0.23568620	      0.95507367	     -0.57943137	    -43.57887986	     -5.79615353	    -11.02905074	    -26.22320177	      2.80933072	     19.19112352	      0.00000000	     -7.18779923	      0.41201483	    -15.23281330	     -7.90511208	     -4.01539824	      0.64138511	      0.00000000	    -47.89611606	     -3.04876655	      8.67816411
